<svg data-v-0dd9719b="" version="1.0" xmlns="http://www.w3.org/2000/svg" xmlns:xlink="http://www.w3.org/1999/xlink" width="100%" height="100%" viewBox="0 0 340.000000 250.000000" preserveAspectRatio="xMidYMid meet" color-interpolation-filters="sRGB" style="margin: auto;"> <rect data-v-0dd9719b="" x="0" y="0" width="100%" height="100%" fill="#ffffff" fill-opacity="0" class="background"></rect> <!----> <g data-v-0dd9719b="" fill="#7e7b7c" class="icon-text-wrapper icon-svg-group iconsvg" transform="translate(81.76499938964844,70.27200317382812)"><g class="iconsvg-imagesvg" transform="translate(58.23500061035156,0)" mask="url(#841fae3e-1ea3-4f09-9f07-cccaada6e9f2)"><g><rect fill="#7e7b7c" fill-opacity="0" stroke-width="2" x="0" y="0" width="60" height="60" class="image-rect"></rect> <svg filter="url(#colors328827300)" x="0" y="0" width="60" height="60" filtersec="colorsf9924860426" class="image-svg-svg primary" style="overflow: visible;"><svg xmlns="http://www.w3.org/2000/svg" xmlns:xlink="http://www.w3.org/1999/xlink" version="1.1" x="0px" y="0px" viewBox="9 9 82 82" enable-background="new 0 0 100 100" xml:space="preserve"><path d="M50,9C27.393,9,9,27.393,9,50s18.393,41,41,41s41-18.393,41-41S72.607,9,50,9z M50,89c-21.505,0-39-17.495-39-39  s17.495-39,39-39s39,17.495,39,39S71.505,89,50,89z"></path><path d="M39.091,31.615c-0.391-0.391-1.023-0.391-1.414,0L19.999,49.293c-0.391,0.391-0.391,1.023,0,1.414l17.678,17.678  c0.195,0.195,0.451,0.293,0.707,0.293s0.512-0.098,0.707-0.293c0.391-0.391,0.391-1.023,0-1.414L22.12,50l16.971-16.971  C39.481,32.639,39.481,32.006,39.091,31.615z"></path><path d="M60.909,31.615c-0.391,0.391-0.391,1.023,0,1.414L77.88,50L60.909,66.971c-0.391,0.391-0.391,1.023,0,1.414  c0.195,0.195,0.451,0.293,0.707,0.293s0.512-0.098,0.707-0.293l17.678-17.678c0.391-0.391,0.391-1.023,0-1.414L62.323,31.615  C61.933,31.225,61.3,31.225,60.909,31.615z"></path><path d="M57.291,26.043c-0.529-0.163-1.086,0.137-1.248,0.666l-14,46c-0.16,0.528,0.138,1.087,0.666,1.248  C42.806,73.986,42.904,74,43,74c0.429,0,0.825-0.278,0.957-0.709l14-46C58.117,26.763,57.819,26.204,57.291,26.043z"></path></svg></svg> <defs><filter id="colors328827300"><feColorMatrix type="matrix" values="0 0 0 0 0.4921875  0 0 0 0 0.48046875  0 0 0 0 0.484375  0 0 0 1 0" class="icon-fecolormatrix"></feColorMatrix></filter> <filter id="colorsf9924860426"><feColorMatrix type="matrix" values="0 0 0 0 0.99609375  0 0 0 0 0.99609375  0 0 0 0 0.99609375  0 0 0 1 0" class="icon-fecolormatrix"></feColorMatrix></filter> <filter id="colorsb7791655292"><feColorMatrix type="matrix" values="0 0 0 0 0  0 0 0 0 0  0 0 0 0 0  0 0 0 1 0" class="icon-fecolormatrix"></feColorMatrix></filter></defs></g><rect v-gra="id" width="72" height="72" transform="translate(-6, -6)" style="pointer-events:none;" fill="url(#KCDtRvniEiHaXFIyMddlW)"></rect></g> <g transform="translate(0,67)"><g data-gra="path-name" fill-rule="" class="tp-name iconsvg-namesvg" transform="translate(0,0)" fill="url(#00bcc966-bce8-4701-b7c4-822112610385)"><g transform="scale(1)"><g><path d="M9.48-21.03L13.01-11.44 10.4-4.69 4.4-21.09 0-21.09 8.52 0 11.97 0 15.62-8.85 19.28 0 22.72 0 31.31-21.09 26.85-21.09 20.88-4.69 18.21-11.44 21.8-21.03 18-21.03 15.62-14.05 13.25-21.03ZM33.09 0L37.07 0 37.07-15.56 33.09-15.56ZM33.09-17.73L37.07-17.73 37.07-21.68 33.09-21.68ZM44.55 0.24C45.84 0.24 47.44-0.12 48.36-0.56L47.82-3.59C47.4-3.4 46.78-3.18 46.22-3.18 45.15-3.18 44.61-3.89 44.61-4.99L44.61-21.68 40.63-21.68 40.63-3.59C40.63-1.13 42.08 0.24 44.55 0.24ZM53.97 0.24C55.26 0.24 56.86-0.12 57.77-0.56L57.24-3.59C56.81-3.4 56.2-3.18 55.63-3.18 54.56-3.18 54.03-3.89 54.03-4.99L54.03-21.68 50.05-21.68 50.05-3.59C50.05-1.13 51.5 0.24 53.97 0.24ZM59.5 0L63.48 0 63.48-15.56 59.5-15.56ZM59.5-17.73L63.48-17.73 63.48-21.68 59.5-21.68ZM77.02-2.5L77.11-1.63C77.32-0.46 78.17 0.21 79.6 0.21 80.1 0.21 80.68 0.14 81.36 0L81.36-3.39C80.64-3.43 80.41-3.79 80.41-4.57L80.41-9.42C80.41-13.69 77.67-15.83 73.34-15.83 71.02-15.83 68.86-15.17 66.86-13.84L68.08-11.32C69.46-12.27 70.91-13.07 72.95-13.07 75.15-13.07 76.43-12.01 76.43-9.86L76.43-8.97C75.43-9.39 74.03-9.65 72.62-9.65 71.65-9.65 70.76-9.53 69.95-9.28 67.89-8.65 66-7.24 66-4.63 66-3.92 66.13-3.27 66.4-2.67 67.17-0.96 68.87 0.3 71.32 0.3 73.9 0.3 75.82-0.91 77.02-2.5ZM69.77-4.96C69.77-6.59 71.52-7.43 73.28-7.43 74.4-7.43 75.57-7.15 76.43-6.83L76.43-5.05C76.43-4.63 76.21-4.26 75.77-3.92 75.13-3.17 73.82-2.61 72.45-2.61 71.02-2.61 69.77-3.56 69.77-4.96ZM103.63-15.83C100.83-15.83 99.02-14.42 97.9-12.53 97.48-14.51 95.99-15.83 93.5-15.83 90.73-15.83 88.77-14.53 87.71-12.68L87.71-15.56 84.12-15.56 84.12 0 88.1 0 88.1-9.09C88.58-10.66 89.96-12.33 91.81-12.33 93.63-12.33 94.22-10.79 94.22-8.73L94.22 0 98.2 0 98.2-9.06C98.68-10.64 100.03-12.33 101.91-12.33 103.73-12.33 104.32-10.79 104.32-8.73L104.32 0 108.3 0 108.3-9.71C108.3-13.21 107.18-15.83 103.63-15.83Z" transform="translate(0, 21.68000030517578)"></path></g> <!----> <!----> <!----> <!----> <!----> <!----> <g data-gra="path-name-1" fill="url(#80bde1e7-3d9a-415f-ae27-f57976e6f62f)" transform="translate(111.30000305175781,0)"><g transform="scale(1)"><path d="M2.64 0L16.9 0 16.9-1.84 4.72-1.84 4.72-21.09 2.64-21.09ZM25.51 0.3C26.64 0.3 27.68 0.08 28.62-0.34 31.18-1.5 33.21-4.05 33.21-7.69 33.21-8.78 33.01-9.81 32.63-10.78 31.57-13.45 29.17-15.74 25.51-15.74 24.41-15.74 23.39-15.52 22.46-15.09 19.91-13.9 17.85-11.36 17.85-7.69 17.85-6.62 18.04-5.6 18.42-4.63 19.46-1.94 21.84 0.3 25.51 0.3ZM19.9-7.66C19.9-8.53 20.05-9.35 20.35-10.11 21.12-12.1 22.83-13.96 25.51-13.96 26.29-13.96 27.01-13.8 27.7-13.47 29.63-12.55 31.16-10.53 31.16-7.72 31.16-6.85 31.01-6.04 30.71-5.29 29.93-3.31 28.19-1.49 25.51-1.49 24.74-1.49 24.01-1.64 23.33-1.96 21.4-2.85 19.9-4.88 19.9-7.66ZM45-15.74C41.98-15.74 39.57-13.99 38.44-11.97L38.44-15.48 36.59-15.48 36.59 0 38.61 0 38.61-9.48C38.79-10.11 39.08-10.7 39.48-11.24 40.45-12.59 42.03-13.9 44.26-13.9 46.95-13.9 47.58-11.69 47.58-8.64L47.58 0 49.6 0 49.6-9.06C49.6-12.78 48.68-15.74 45-15.74ZM65.79-3L65.79 0.06C65.79 3.31 63.47 5.02 60.24 5.02 57.58 5.02 55.62 3.89 54.53 2.14L53.29 3.12C54.65 5.28 56.69 6.62 60.24 6.62 64.55 6.62 67.81 4.38 67.81 0.06L67.81-15.48 66-15.48 66-12.24C64.76-14.04 62.94-15.74 60.06-15.74 58.99-15.74 58.01-15.52 57.13-15.09 54.68-13.88 52.87-11.3 52.87-7.69 52.87-5.42 53.77-3.52 54.91-2.23 56.06-0.92 57.78 0.21 60.12 0.21 62.68 0.21 64.76-1.29 65.79-3ZM60.68-1.49C59.87-1.49 59.12-1.65 58.43-1.98 56.49-2.89 54.92-4.87 54.92-7.66 54.92-8.44 55.04-9.2 55.29-9.95 55.99-12.07 57.67-13.96 60.45-13.96 61-13.96 61.55-13.86 62.09-13.66 63.79-13.05 65.13-11.77 65.79-10.1L65.79-5.32C65.69-4.84 65.49-4.38 65.17-3.92 64.3-2.68 62.74-1.49 60.68-1.49Z" transform="translate(-2.640000104904175, 21.68000030517578)"></path></g></g></g></g> <g data-gra="path-slogan" fill-rule="" class="tp-slogan iconsvg-slogansvg" fill="url(#18099537-93e2-4797-9b93-06892ec5fb95)" transform="translate(29.13500213623047,34.29999923706055)"><!----> <!----> <g transform="scale(1, 1)"><g transform="scale(1)"><path d="M1.08-7.87L1.08 0L2.08 0L2.08-3.53L5.08-3.53L5.08-4.37L2.08-4.37L2.08-7.03L5.62-7.03L5.62-7.87ZM6.97-7.87L6.97-3.25C6.97-2.62 7.04-2.09 7.19-1.66C7.33-1.22 7.53-0.87 7.78-0.61C8.03-0.34 8.33-0.15 8.68-0.03C9.03 0.09 9.40 0.14 9.80 0.14C10.20 0.14 10.58 0.09 10.92-0.03C11.26-0.15 11.56-0.34 11.81-0.61C12.07-0.87 12.26-1.22 12.41-1.66C12.55-2.09 12.62-2.62 12.62-3.25L12.62-7.87L11.66-7.87L11.66-3.23C11.66-2.76 11.62-2.36 11.52-2.04C11.42-1.72 11.29-1.46 11.12-1.27C10.96-1.08 10.76-0.94 10.54-0.86C10.31-0.77 10.07-0.73 9.80-0.73C9.55-0.73 9.31-0.77 9.08-0.86C8.86-0.94 8.67-1.08 8.50-1.27C8.34-1.46 8.21-1.72 8.11-2.04C8.02-2.36 7.97-2.76 7.97-3.23L7.97-7.87ZM14.75-7.87L14.75 0L19.19 0L19.19-0.85L15.74-0.85L15.74-7.87ZM20.58-7.87L20.58 0L25.02 0L25.02-0.85L21.58-0.85L21.58-7.87ZM26.17-1.72L25.57-1.02C25.92-0.66 26.32-0.38 26.80-0.17C27.27 0.04 27.78 0.14 28.33 0.14C28.75 0.14 29.12 0.09 29.45-0.03C29.78-0.15 30.06-0.31 30.29-0.51C30.52-0.71 30.70-0.95 30.82-1.22C30.95-1.50 31.01-1.79 31.01-2.10C31.01-2.39 30.97-2.64 30.88-2.86C30.80-3.08 30.68-3.27 30.54-3.44C30.40-3.60 30.22-3.75 30.02-3.87C29.82-3.99 29.61-4.10 29.39-4.20L28.27-4.68C28.11-4.74 27.96-4.81 27.80-4.89C27.65-4.97 27.51-5.05 27.38-5.15C27.26-5.25 27.15-5.37 27.08-5.50C27.00-5.63 26.96-5.80 26.96-5.99C26.96-6.35 27.10-6.63 27.37-6.83C27.63-7.04 27.99-7.14 28.43-7.14C28.80-7.14 29.13-7.07 29.42-6.94C29.71-6.81 29.98-6.63 30.22-6.40L30.76-7.04C30.48-7.33 30.14-7.57 29.74-7.75C29.34-7.93 28.90-8.02 28.43-8.02C28.07-8.02 27.74-7.96 27.44-7.86C27.14-7.76 26.88-7.61 26.66-7.42C26.44-7.23 26.27-7.01 26.14-6.76C26.02-6.50 25.96-6.22 25.96-5.93C25.96-5.64 26.00-5.39 26.10-5.17C26.20-4.95 26.32-4.76 26.47-4.60C26.62-4.44 26.80-4.30 26.99-4.19C27.18-4.08 27.37-3.98 27.55-3.90L28.68-3.41C28.86-3.32 29.04-3.24 29.20-3.16C29.36-3.08 29.49-2.99 29.61-2.89C29.73-2.79 29.82-2.67 29.89-2.53C29.95-2.39 29.99-2.22 29.99-2.02C29.99-1.63 29.84-1.32 29.56-1.09C29.27-0.85 28.86-0.73 28.34-0.73C27.94-0.73 27.54-0.82 27.16-1.00C26.78-1.18 26.45-1.42 26.17-1.72ZM33.95-7.03L33.95 0L34.96 0L34.96-7.03L37.33-7.03L37.33-7.87L31.57-7.87L31.57-7.03ZM41.62-3.20L39.25-3.20L39.62-4.40C39.77-4.84 39.90-5.28 40.03-5.72C40.16-6.15 40.28-6.60 40.40-7.06L40.45-7.06C40.58-6.60 40.71-6.15 40.84-5.72C40.96-5.28 41.10-4.84 41.24-4.40ZM41.87-2.40L42.61 0L43.68 0L41.02-7.87L39.89-7.87L37.22 0L38.24 0L39.00-2.40ZM44.22-3.94C44.22-3.30 44.31-2.72 44.48-2.21C44.65-1.71 44.89-1.28 45.20-0.93C45.51-0.58 45.87-0.32 46.29-0.13C46.71 0.05 47.17 0.14 47.66 0.14C48.17 0.14 48.62 0.04 49.01-0.16C49.40-0.36 49.75-0.64 50.06-1.00L49.50-1.61C49.24-1.33 48.97-1.11 48.69-0.96C48.41-0.81 48.07-0.73 47.69-0.73C47.31-0.73 46.97-0.81 46.67-0.96C46.37-1.11 46.12-1.33 45.91-1.61C45.70-1.89 45.54-2.23 45.43-2.62C45.31-3.02 45.25-3.46 45.25-3.96C45.25-4.45 45.31-4.89 45.43-5.28C45.55-5.67 45.72-6.01 45.94-6.28C46.15-6.56 46.41-6.77 46.72-6.92C47.02-7.07 47.36-7.14 47.74-7.14C48.07-7.14 48.37-7.07 48.62-6.94C48.87-6.81 49.10-6.63 49.31-6.41L49.87-7.04C49.64-7.30 49.34-7.53 48.98-7.72C48.62-7.92 48.20-8.02 47.72-8.02C47.22-8.02 46.75-7.92 46.33-7.73C45.90-7.55 45.53-7.28 45.22-6.92C44.90-6.57 44.66-6.14 44.48-5.64C44.31-5.14 44.22-4.57 44.22-3.94ZM51.53-7.87L51.53 0L52.52 0L52.52-2.50L53.88-4.09L56.23 0L57.35 0L54.50-4.87L56.96-7.87L55.84-7.87L52.56-3.92L52.52-3.92L52.52-7.87ZM60.90-7.87L60.90 0L62.92 0C63.51 0 64.03-0.09 64.49-0.27C64.94-0.45 65.33-0.71 65.64-1.05C65.95-1.39 66.19-1.81 66.35-2.30C66.51-2.79 66.59-3.35 66.59-3.97C66.59-5.23 66.27-6.19 65.64-6.86C65.01-7.54 64.08-7.87 62.87-7.87ZM62.80-0.82L61.90-0.82L61.90-7.06L62.80-7.06C63.72-7.06 64.41-6.79 64.87-6.26C65.33-5.74 65.56-4.97 65.56-3.97C65.56-2.97 65.33-2.20 64.87-1.64C64.41-1.09 63.72-0.82 62.80-0.82ZM68.28-7.87L68.28 0L72.94 0L72.94-0.85L69.28-0.85L69.28-3.71L72.26-3.71L72.26-4.56L69.28-4.56L69.28-7.03L72.82-7.03L72.82-7.87ZM73.52-7.87L76.04 0L77.21 0L79.70-7.87L78.68-7.87L77.42-3.62C77.29-3.15 77.16-2.72 77.05-2.32C76.94-1.92 76.81-1.48 76.67-1.02L76.62-1.02C76.47-1.48 76.34-1.92 76.23-2.32C76.12-2.72 76.00-3.15 75.85-3.62L74.59-7.87ZM80.78-7.87L80.78 0L85.44 0L85.44-0.85L81.78-0.85L81.78-3.71L84.77-3.71L84.77-4.56L81.78-4.56L81.78-7.03L85.32-7.03L85.32-7.87ZM87.11-7.87L87.11 0L91.55 0L91.55-0.85L88.10-0.85L88.10-7.87ZM95.53 0.14C96.03 0.14 96.48 0.05 96.89-0.14C97.31-0.34 97.66-0.61 97.96-0.97C98.26-1.32 98.49-1.75 98.66-2.26C98.82-2.77 98.90-3.34 98.90-3.97C98.90-4.60 98.82-5.16 98.66-5.66C98.49-6.16 98.26-6.58 97.96-6.93C97.66-7.28 97.31-7.55 96.89-7.73C96.48-7.92 96.03-8.02 95.53-8.02C95.04-8.02 94.58-7.92 94.17-7.74C93.76-7.56 93.40-7.29 93.11-6.94C92.81-6.59 92.58-6.17 92.42-5.67C92.25-5.17 92.17-4.60 92.17-3.97C92.17-3.34 92.25-2.77 92.42-2.26C92.58-1.75 92.81-1.32 93.11-0.97C93.40-0.61 93.76-0.34 94.17-0.14C94.58 0.05 95.04 0.14 95.53 0.14ZM95.53-0.73C95.18-0.73 94.86-0.81 94.58-0.96C94.29-1.11 94.05-1.33 93.85-1.61C93.64-1.90 93.48-2.24 93.37-2.63C93.26-3.03 93.20-3.48 93.20-3.97C93.20-4.46 93.26-4.90 93.37-5.29C93.48-5.68 93.64-6.02 93.85-6.29C94.05-6.56 94.29-6.77 94.58-6.92C94.86-7.07 95.18-7.14 95.53-7.14C95.88-7.14 96.20-7.07 96.49-6.92C96.77-6.77 97.01-6.56 97.22-6.29C97.42-6.02 97.58-5.68 97.69-5.29C97.80-4.90 97.86-4.46 97.86-3.97C97.86-3.48 97.80-3.03 97.69-2.63C97.58-2.24 97.42-1.90 97.22-1.61C97.01-1.33 96.77-1.11 96.49-0.96C96.20-0.81 95.88-0.73 95.53-0.73ZM100.60-7.87L100.60 0L101.59 0L101.59-3.12L103.01-3.12C103.44-3.12 103.83-3.17 104.19-3.27C104.55-3.37 104.85-3.52 105.11-3.72C105.36-3.92 105.56-4.17 105.70-4.48C105.84-4.78 105.91-5.14 105.91-5.56C105.91-5.99 105.84-6.35 105.70-6.65C105.56-6.94 105.37-7.18 105.11-7.36C104.86-7.54 104.56-7.67 104.20-7.75C103.84-7.83 103.44-7.87 103.01-7.87ZM102.89-3.94L101.59-3.94L101.59-7.07L102.89-7.07C103.57-7.07 104.08-6.96 104.41-6.74C104.75-6.52 104.92-6.12 104.92-5.56C104.92-5.00 104.75-4.59 104.42-4.33C104.09-4.07 103.58-3.94 102.89-3.94ZM107.51-7.87L107.51 0L112.16 0L112.16-0.85L108.50-0.85L108.50-3.71L111.49-3.71L111.49-4.56L108.50-4.56L108.50-7.03L112.04-7.03L112.04-7.87ZM114.83-4.14L114.83-7.07L116.15-7.07C116.76-7.07 117.24-6.96 117.56-6.76C117.89-6.55 118.06-6.18 118.06-5.66C118.06-5.15 117.89-4.77 117.56-4.52C117.24-4.27 116.76-4.14 116.15-4.14ZM118.15 0L119.28 0L117.29-3.43C117.82-3.57 118.25-3.82 118.57-4.19C118.89-4.56 119.05-5.05 119.05-5.66C119.05-6.07 118.98-6.42 118.85-6.70C118.71-6.98 118.52-7.20 118.28-7.38C118.03-7.56 117.74-7.68 117.40-7.76C117.06-7.83 116.69-7.87 116.29-7.87L113.83-7.87L113.83 0L114.83 0L114.83-3.32L116.26-3.32Z" transform="translate(-1.08, 8.016)"></path></g></g></g></g></g><defs v-gra="od"><linearGradient x1="0" y1="1" x2="0" y2="0" id="18099537-93e2-4797-9b93-06892ec5fb95"><stop offset="0%" stop-color="#7e7b7c"></stop><stop offset="50%" stop-color="#ededef"></stop><stop offset="100%" stop-color="#7e7b7c"></stop></linearGradient><filter id="42443b3f1de60f6b6fd3b6a9844b4764" filterUnits="objectBoundingBox"><feColorMatrix type="matrix" values="0 0 0 0 0.99609375  0 0 0 0 0.99609375  0 0 0 0 0.99609375  0 0 0 1 0"></feColorMatrix></filter><linearGradient x1="0" y1="1" x2="0" y2="0" id="00bcc966-bce8-4701-b7c4-822112610385"><stop offset="0%" stop-color="#7e7b7c"></stop><stop offset="50%" stop-color="#ededef"></stop><stop offset="100%" stop-color="#7e7b7c"></stop></linearGradient><filter id="42443b3f1de60f6b6fd3b6a9844b4764" filterUnits="objectBoundingBox"><feColorMatrix type="matrix" values="0 0 0 0 0.99609375  0 0 0 0 0.99609375  0 0 0 0 0.99609375  0 0 0 1 0"></feColorMatrix></filter><linearGradient x1="0" y1="1" x2="0" y2="0" id="80bde1e7-3d9a-415f-ae27-f57976e6f62f"><stop offset="0%" stop-color="#7e7b7c"></stop><stop offset="50%" stop-color="#ededef"></stop><stop offset="100%" stop-color="#7e7b7c"></stop></linearGradient><filter id="42443b3f1de60f6b6fd3b6a9844b4764" filterUnits="objectBoundingBox"><feColorMatrix type="matrix" values="0 0 0 0 0.99609375  0 0 0 0 0.99609375  0 0 0 0 0.99609375  0 0 0 1 0"></feColorMatrix></filter></defs><defs v-gra="id"><filter id="4237713b-6b39-4a3a-97f9-9d6244e268fa" filterUnits="userSpaceOnUse"><feColorMatrix type="matrix" values="0 0 0 0 0.99609375  0 0 0 0 0.99609375  0 0 0 0 0.99609375  0 0 0 1 0"></feColorMatrix></filter><linearGradient x1="0" y1="1" x2="0" y2="0" id="KCDtRvniEiHaXFIyMddlW"><stop offset="0%" stop-color="#7e7b7c"></stop><stop offset="50%" stop-color="#ededef"></stop><stop offset="100%" stop-color="#7e7b7c"></stop></linearGradient><filter id="42443b3f1de60f6b6fd3b6a9844b4764" filterUnits="objectBoundingBox"><feColorMatrix type="matrix" values="0 0 0 0 0.99609375  0 0 0 0 0.99609375  0 0 0 0 0.99609375  0 0 0 1 0"></feColorMatrix></filter></defs><mask v-gra="im" id="841fae3e-1ea3-4f09-9f07-cccaada6e9f2"><g class="iconsvg-imagesvg" filter="url(#4237713b-6b39-4a3a-97f9-9d6244e268fa)"><g><rect fill="#7e7b7c" fill-opacity="0" stroke-width="2" x="0" y="0" width="60" height="60" class="image-rect"></rect> <svg x="0" y="0" width="60" height="60" filtersec="colorsf9924860426" class="image-svg-svg primary" style="overflow: visible;"><svg xmlns="http://www.w3.org/2000/svg" xmlns:xlink="http://www.w3.org/1999/xlink" version="1.1" x="0px" y="0px" viewBox="9 9 82 82" enable-background="new 0 0 100 100" xml:space="preserve"><path d="M50,9C27.393,9,9,27.393,9,50s18.393,41,41,41s41-18.393,41-41S72.607,9,50,9z M50,89c-21.505,0-39-17.495-39-39  s17.495-39,39-39s39,17.495,39,39S71.505,89,50,89z"></path><path d="M39.091,31.615c-0.391-0.391-1.023-0.391-1.414,0L19.999,49.293c-0.391,0.391-0.391,1.023,0,1.414l17.678,17.678  c0.195,0.195,0.451,0.293,0.707,0.293s0.512-0.098,0.707-0.293c0.391-0.391,0.391-1.023,0-1.414L22.12,50l16.971-16.971  C39.481,32.639,39.481,32.006,39.091,31.615z"></path><path d="M60.909,31.615c-0.391,0.391-0.391,1.023,0,1.414L77.88,50L60.909,66.971c-0.391,0.391-0.391,1.023,0,1.414  c0.195,0.195,0.451,0.293,0.707,0.293s0.512-0.098,0.707-0.293l17.678-17.678c0.391-0.391,0.391-1.023,0-1.414L62.323,31.615  C61.933,31.225,61.3,31.225,60.909,31.615z"></path><path d="M57.291,26.043c-0.529-0.163-1.086,0.137-1.248,0.666l-14,46c-0.16,0.528,0.138,1.087,0.666,1.248  C42.806,73.986,42.904,74,43,74c0.429,0,0.825-0.278,0.957-0.709l14-46C58.117,26.763,57.819,26.204,57.291,26.043z"></path></svg></svg> <defs><filter id="colors328827300"><feColorMatrix type="matrix" values="0 0 0 0 0.4921875  0 0 0 0 0.48046875  0 0 0 0 0.484375  0 0 0 1 0" class="icon-fecolormatrix"></feColorMatrix></filter> <filter id="colorsf9924860426"><feColorMatrix type="matrix" values="0 0 0 0 0.99609375  0 0 0 0 0.99609375  0 0 0 0 0.99609375  0 0 0 1 0" class="icon-fecolormatrix"></feColorMatrix></filter> <filter id="colorsb7791655292"><feColorMatrix type="matrix" values="0 0 0 0 0  0 0 0 0 0  0 0 0 0 0  0 0 0 1 0" class="icon-fecolormatrix"></feColorMatrix></filter></defs></g></g></mask></svg>
