<svg data-v-0dd9719b="" version="1.0" xmlns="http://www.w3.org/2000/svg" xmlns:xlink="http://www.w3.org/1999/xlink" width="100%" height="100%" viewBox="0 0 340.000000 250.000000" preserveAspectRatio="xMidYMid meet" color-interpolation-filters="sRGB" style="margin: auto;background:#555;"> <rect data-v-0dd9719b="" x="0" y="0" width="100%" height="100%" fill="#555" class="background"></rect> <!----> <g data-v-0dd9719b="" fill="#ffffff" class="bordersvg b-d1" transform="translate(35.55436706542969,50.28999789575619)"><path fill-opacity="0" stroke="#ffffff" stroke-width="3" d="M 129.4199981689453 37.459999084472656 A 74.70999908447266 74.70999908447266 0 1 1 129.4199981689453 111.95999908447266"></path> <g transform="translate(0,37.459999084472656)"><g><rect data-gra="graph-name-bg" stroke-width="2" class="i-icon-bg" x="0" y="0" width="258.8399963378906" height="74.5" fill-opacity="0"></rect> <!----> <!----> </g> <g transform="translate(10,3)"><g data-gra="path-name" fill-rule="" class="tp-name" transform="translate(0,0)"><g transform="scale(1)"><g><path d="M41.92 9.15C41.88 9.19 41.88 9.28 41.88 9.37 41.88 9.46 41.88 9.54 41.92 9.63 42.14 9.98 42.71 10.33 43.14 10.33 43.32 10.33 43.45 10.28 43.58 10.15 45.49 7.23 46.19 1.18 46.54-5.53 54.6-6.54 60.79-8.54 65.32-11.07 72.21-14.86 75.26-19.91 75.26-24.32 75.26-25.84 74.91-27.24 74.26-28.54L73.99-29.02C68.37-39.22 52.68-44.01 36.82-44.01 16.21-44.01-4.71-35.99-4.71-21.22-4.71-18.3-3.88-15.12-2.09-11.68L-1.87-11.29C1.26-5.62 8.58 1.05 17.21 4.53 17.43 4.62 17.56 4.62 17.69 4.62 18 4.62 18.17 4.44 18.17 4.23 18.17 4.14 18.13 4.01 18.08 3.92 17.95 3.7 17.69 3.49 17.39 3.36 9.41 0.13 2.61-6.01-0.31-11.24L-0.52-11.64C-2.22-14.86-2.96-17.87-2.96-20.61-2.96-34.91 17.69-42.62 37.69-42.62 52.73-42.62 67.37-38.26 72.47-29.02L72.69-28.59C73.25-27.45 73.56-26.19 73.56-24.88 73.56-20.74 70.64-15.99 63.93-12.29 59.7-9.94 53.99-8.06 46.58-7.02 46.67-10.15 46.71-13.33 46.8-16.43 46.89-25.14 46.93-32.86 48.59-33.95 48.72-34.03 48.76-34.12 48.76-34.25 48.76-34.34 48.72-34.47 48.68-34.56 48.59-34.69 48.5-34.77 48.41-34.86 48.11-35.12 47.85-35.21 47.59-35.21 45.15-35.21 45.1-23.62 45.06-17.04 44.97-13.68 44.97-10.15 44.84-6.8 41.44-6.41 37.69-6.23 33.64-6.23L31.46-6.23C31.16-6.23 31.03-6.1 31.03-5.93 31.03-5.8 31.07-5.71 31.11-5.58 31.29-5.27 31.77-4.92 32.25-4.88 33.03-4.88 33.82-4.84 34.56-4.84 38.26-4.84 41.62-5.05 44.75-5.36 44.45 0.92 43.71 6.49 41.92 9.15ZM79.66-6.89C79.75-6.58 79.88-6.19 80.05-5.84 80.79-4.53 82.14-3.62 83.67-3.62 86.06-3.62 87.9-6.06 88.59-7.02 88.64-7.06 88.64-7.1 88.64-7.19 88.64-7.28 88.59-7.41 88.55-7.5 88.46-7.67 88.33-7.84 88.11-7.97 87.85-8.11 87.68-8.19 87.5-8.19 86.76-8.19 86.46-6.93 84.8-5.71 84.41-5.4 83.62-4.97 82.93-4.97 82.4-4.97 81.92-5.19 81.62-5.75 81.36-6.32 81.27-6.62 81.27-6.84 81.27-7.15 81.45-7.23 81.45-7.36 81.45-7.41 81.45-7.45 81.4-7.54 81.36-7.63 81.31-7.71 81.23-7.8 80.84-8.28 80.62-8.37 80.31-8.37 80.01-8.37 79.57-8.28 78.87-8.28 78.61-8.28 78.31-8.28 77.92-8.32 77.57-8.37 77.39-8.45 77.31-8.58 77.26-8.67 77.22-8.76 77.22-8.89 77.22-8.98 77.26-9.11 77.26-9.19L77.26-9.28C77.26-9.41 77.22-9.5 77.18-9.59 77-9.94 76.43-10.24 76.04-10.24 75.82-10.24 75.65-10.15 75.61-9.94 75.56-9.76 75.56-9.54 75.56-9.41 75.56-9.19 75.56-8.98 75.65-8.8L75.82-8.54C76.56-7.15 78.35-6.93 79.66-6.89ZM88.59-7.02C88.85-7.32 89.12-7.54 89.38-7.67 89.33-7.5 89.29-7.32 89.29-7.1 89.29-6.67 89.46-6.14 89.73-5.67L89.81-5.49C90.81-3.92 92.43-3.27 93.87-3.27 95.35-3.27 96.65-3.92 97.09-5.01 97.39-5.01 97.74-4.97 98.05-4.97 100.23-4.97 101.53-5.53 102.71-6.97 102.75-7.02 102.75-7.1 102.75-7.15 102.75-7.28 102.71-7.41 102.67-7.5 102.49-7.8 101.93-8.19 101.58-8.19 100.75-8.19 100.71-6.36 97.31-6.36L97.22-6.36C97.13-6.75 97.05-7.1 96.83-7.45 96.04-8.89 94.26-9.94 92.91-9.94 92.03-9.94 91.38-9.54 91.16-8.63 90.81-9.11 90.29-9.33 89.64-9.33 88.72-9.33 87.63-8.85 87.02-8.02 86.98-7.93 86.98-7.89 86.98-7.8 86.98-7.71 87.02-7.58 87.07-7.5 87.24-7.15 87.76-6.84 88.16-6.84 88.33-6.84 88.51-6.89 88.59-7.02ZM92.82-7.93C92.99-8.37 93.3-8.54 93.65-8.54 94.74-8.54 95.43-7.45 95.56-6.49 94.61-6.58 93.21-6.84 92.86-7.45 92.82-7.58 92.82-7.76 92.82-7.93ZM91.38-7.36C91.99-6.23 93.65-5.62 95.04-5.32 94.52-4.88 93.82-4.62 93.12-4.62 92.38-4.62 91.64-4.92 91.25-5.58 91.12-5.84 91.03-6.1 91.03-6.45 91.03-6.75 91.12-7.1 91.25-7.54Z" transform="translate(4.710000038146973, 44.0099983215332)"></path></g> <!----> <!----> <!----> <!----> <!----> <!----> <g data-gra="path-name-1" fill="#2aa1a6" transform="translate(110.45999908447266,0)"><g transform="scale(1)"><path d="M48.59-42.57C44.8-42.57 40.31-33.03 35.3-22.31 33.21-17.91 31.03-13.29 28.85-9.06 27.24-9.11 25.67-9.11 24.23-9.11 17.69-9.11 12.9-8.85 12.51-7.97 12.46-7.93 12.46-7.84 12.46-7.8 12.46-7.71 12.46-7.63 12.51-7.54 12.72-7.15 13.29-6.84 13.68-6.84 13.9-6.84 14.08-6.89 14.12-7.06 14.42-7.58 18.08-7.8 23.36-7.8 24.84-7.8 26.45-7.8 28.19-7.76 23.79 0.26 19.35 6.49 14.99 6.49L14.9 6.49C10.33 6.36 7.1 2.18 5.27-1.09L5.01-1.57C3.79-3.92 3.31-5.84 3.31-7.36 3.31-10.98 5.93-12.46 7.19-12.46 7.54-12.46 7.76-12.38 7.84-12.2L7.89-12.16C8.11-11.77 8.63-11.55 8.98-11.55 9.24-11.55 9.46-11.68 9.46-11.9 9.46-11.98 9.46-12.07 9.37-12.2L9.33-12.29C8.76-13.33 7.67-13.86 6.49-13.86 4.23-13.86 1.57-11.85 1.57-8.02 1.57-6.62 1.92-4.97 2.79-3.09 4.79 1.92 9.46 7.36 15.08 7.8 15.25 7.8 15.43 7.84 15.6 7.84 20.96 7.84 25.67 0.87 30.24-7.71L53.29-7.02 53.29-4.88C53.29-0.09 53.47 3.75 54.21 5.49L54.25 5.58C54.47 6.01 54.99 6.23 55.43 6.23 55.69 6.23 55.87 6.14 55.87 5.93 55.87 5.84 55.87 5.75 55.82 5.67 55.17 4.1 54.95 0.48 54.95-4.05 54.95-5.01 54.99-5.97 54.99-6.97 57.74-6.89 60.09-6.84 61.88-6.84L63.45-6.84C63.8-6.84 63.97-7.02 63.97-7.23 63.97-7.32 63.93-7.41 63.88-7.5 63.71-7.84 63.23-8.19 62.71-8.19L61.14-8.19C59.53-8.19 57.48-8.24 54.99-8.28 55.04-11.42 55.13-14.95 55.13-18.52 55.13-26.54 54.78-34.73 52.95-38.91 52.86-39.22 52.68-39.52 52.51-39.79 51.6-41.44 50.38-42.44 48.76-42.57ZM51.33-39.09C53.08-35.12 53.43-27.24 53.43-19.48 53.43-15.56 53.34-11.72 53.29-8.37L30.98-9.02C33.03-13.03 35.04-17.3 36.95-21.4 41.83-31.9 46.19-41.22 49.2-41.22L49.33-41.22C50.16-41.09 51.16-39.92 51.33-39.09ZM75.26-7.58C76.43-6.62 77.79-3.7 81.1-3.62L81.14-3.62C83.1-3.62 84.58-5.75 85.28-6.84 85.37-6.97 85.41-7.1 85.41-7.23 85.41-7.36 85.37-7.5 85.32-7.58 85.11-7.93 84.58-8.19 84.19-8.19 84.02-8.19 83.89-8.15 83.8-8.02 83.19-7.02 81.84-4.97 80.44-4.97L80.4-4.97C78.48-5.01 77.57-7.15 76.13-8.32 75.43-8.89 74.78-9.15 74.12-9.15 71.42-9.15 69.42-4.62 67.41-4.27 67.28-4.66 67.2-5.1 67.2-5.49 67.2-6.14 67.37-6.75 67.68-7.23 67.72-7.28 67.76-7.36 67.76-7.45 67.76-7.54 67.72-7.63 67.68-7.71 67.5-8.06 66.93-8.41 66.5-8.41 66.37-8.41 66.24-8.37 66.15-8.24 65.76-7.71 65.5-6.84 65.5-5.93 65.5-5.27 65.63-4.62 65.93-4.1 66.28-3.4 67.15-2.88 67.94-2.88 70.55-2.88 73.12-7.76 74.78-7.76 74.95-7.76 75.08-7.71 75.26-7.58ZM93.39-1.53C89.03 1.22 84.8 3.92 84.8 6.97 84.8 7.58 84.98 8.19 85.32 8.8L85.45 9.06C86.67 11.07 89.81 13.33 92.12 13.33 93.47 13.33 94.52 12.55 94.78 10.55 95.17 6.84 95.3 3.05 95.3-0.7 98.48-2.7 101.58-4.79 103.02-7.02 103.06-7.1 103.1-7.15 103.1-7.23 103.1-7.32 103.06-7.41 103.02-7.5 102.84-7.84 102.28-8.19 101.84-8.19 101.67-8.19 101.53-8.11 101.45-7.97 100.31-6.19 97.92-4.44 95.3-2.75 95.26-3.92 95.3-6.45 94.74-7.67L94.61-7.89C94.3-8.45 93.73-8.89 92.91-8.89 91.9-8.89 87.07-5.19 84.84-5.01L84.84-5.27C84.84-7.1 86.89-9.37 89.03-9.37 89.38-9.37 89.55-9.37 89.55-8.98 89.55-8.45 90.38-8.06 90.81-8.06 91.08-8.06 91.25-8.15 91.25-8.41L91.25-8.5C91.25-9.85 89.46-10.72 88.29-10.72 85.24-10.72 83.15-7.89 83.15-5.8 83.15-5.4 83.19-5.05 83.36-4.75L83.36-4.71C83.8-3.97 84.5-3.66 85.28-3.66 87.94-3.66 92.03-6.62 93.34-7.36 93.47-6.58 93.6-2.92 93.6-1.92L93.6-1.66ZM93.52 2.14C93.43 4.92 93.3 7.76 93.08 9.85 92.86 11.37 92.21 11.94 91.34 11.94 89.73 11.94 87.5 9.94 86.89 8.93L86.89 8.89C86.63 8.41 86.5 7.97 86.5 7.5 86.5 4.97 90.25 2.57 93.6 0.44 93.6 1 93.56 1.57 93.52 2.14ZM115.31-6.1C115.57-6.41 116.05-6.84 116.05-7.28 116.05-7.36 116-7.5 115.96-7.58 115.74-7.89 115.26-8.19 114.87-8.19 114.43-8.19 114.22-7.8 114.08-7.58 112.95-6.1 109.12-3.97 106.07-3.97L105.89-3.97C104.59-4.01 103.8-4.62 103.45-5.32 103.28-5.67 103.15-6.01 103.15-6.36L103.15-6.49C104.37-5.93 105.59-5.67 106.76-5.67 108.9-5.67 109.86-6.54 109.86-7.54 109.86-7.8 109.77-8.11 109.6-8.41 109.07-9.41 107.68-10.28 105.72-10.28L105.59-10.28C102.75-10.24 101.45-8.72 101.45-7.06 101.45-6.45 101.62-5.84 101.93-5.27 102.93-3.49 104.93-2.61 106.89-2.61 110.51-2.61 114.39-5.1 115.31-6.1ZM107.94-8.5C108.03-8.32 108.07-8.19 108.07-8.06 108.07-7.45 107.29-6.97 106.07-6.97 105.33-6.97 104.41-7.15 103.5-7.58 104.15-8.5 105.59-8.93 106.68-8.93 107.29-8.93 107.77-8.8 107.94-8.5ZM122.8-2.14C126.07-2.14 128.51-5.27 129.86-7.02 129.95-7.1 129.95-7.19 129.95-7.28 129.95-7.36 129.95-7.45 129.86-7.54 129.69-7.89 129.12-8.24 128.73-8.24 128.55-8.24 128.38-8.19 128.29-8.06 127.16-6.58 124.8-3.49 122.06-3.49 119.44-3.49 117.75-5.19 116.7-7.1 120.36-10.02 122.63-15.91 122.8-20.39L122.8-21C122.8-22.09 122.71-23.1 122.36-23.97 121.58-25.75 120.45-27.1 118.31-27.1L118.05-27.1C114.56-26.93 112.78-22.27 112.78-17 112.78-13.73 113.47-10.24 114.91-7.5L115-7.36C116.53-4.58 119.1-2.14 122.8-2.14ZM119.1-25.75C119.36-25.75 119.62-25.71 119.75-25.62 120.05-25.49 120.27-25.23 120.45-24.88 121.1-23.75 121.14-21.83 121.14-21 120.93-17 119.01-11.72 115.87-8.8 114.96-11.11 114.48-13.99 114.48-16.65 114.48-21.35 115.92-25.62 118.88-25.75Z" transform="translate(-1.5699999332427979, 44.0099983215332)"></path></g></g></g></g> <g data-gra="path-slogan" fill-rule="" class="tp-slogan" transform="translate(37.31999969482422,56.34000015258789)"><!----> <!----> <g mask="url(#c1ec79e3-9637-4626-820d-c131b75c960d)"><g><rect data-gra="graph-name-bg" stroke-width="2" class="i-icon-bg" x="0" y="0" width="164.1999969482422" height="12.160000801086426" fill-opacity="1"></rect> <!----> <!----> </g> <g transform="translate(5,2)"><g transform="scale(1, 1)" fill="#534744"><g transform="scale(1)"><path d="M1.08 0L1.08-7.87L5.62-7.87L5.62-7.03L2.08-7.03L2.08-4.37L5.08-4.37L5.08-3.53L2.08-3.53L2.08 0L1.08 0ZM8.97-3.25L8.97-7.87L9.97-7.87L9.97-3.23Q9.97-2.52 10.11-2.04Q10.26-1.56 10.50-1.27Q10.75-0.98 11.08-0.86Q11.42-0.73 11.80-0.73L11.80-0.73Q12.20-0.73 12.54-0.86Q12.87-0.98 13.12-1.27Q13.38-1.56 13.52-2.04Q13.66-2.52 13.66-3.23L13.66-3.23L13.66-7.87L14.62-7.87L14.62-3.25Q14.62-2.30 14.41-1.66Q14.19-1.01 13.81-0.61Q13.44-0.20 12.92-0.03Q12.40 0.14 11.80 0.14L11.80 0.14Q11.20 0.14 10.68-0.03Q10.16-0.20 9.78-0.61Q9.40-1.01 9.19-1.66Q8.97-2.30 8.97-3.25L8.97-3.25ZM18.75 0L18.75-7.87L19.74-7.87L19.74-0.85L23.19-0.85L23.19 0L18.75 0ZM26.58 0L26.58-7.87L27.58-7.87L27.58-0.85L31.02-0.85L31.02 0L26.58 0ZM33.57-1.02L34.17-1.72Q34.59-1.27 35.16-1.00Q35.73-0.73 36.34-0.73L36.34-0.73Q37.12-0.73 37.56-1.09Q37.99-1.44 37.99-2.02L37.99-2.02Q37.99-2.32 37.89-2.53Q37.78-2.74 37.61-2.89Q37.44-3.04 37.20-3.16Q36.96-3.28 36.68-3.41L36.68-3.41L35.55-3.90Q35.28-4.02 34.99-4.19Q34.70-4.36 34.47-4.60Q34.24-4.84 34.10-5.17Q33.96-5.50 33.96-5.93L33.96-5.93Q33.96-6.37 34.14-6.76Q34.33-7.14 34.66-7.42Q34.99-7.70 35.44-7.86Q35.89-8.02 36.43-8.02L36.43-8.02Q37.14-8.02 37.74-7.75Q38.34-7.48 38.76-7.04L38.76-7.04L38.22-6.40Q37.86-6.74 37.42-6.94Q36.98-7.14 36.43-7.14L36.43-7.14Q35.77-7.14 35.37-6.83Q34.96-6.53 34.96-5.99L34.96-5.99Q34.96-5.70 35.08-5.50Q35.19-5.30 35.38-5.15Q35.58-5.00 35.80-4.89Q36.03-4.78 36.27-4.68L36.27-4.68L37.39-4.20Q37.72-4.06 38.02-3.87Q38.32-3.68 38.54-3.44Q38.76-3.19 38.88-2.86Q39.01-2.53 39.01-2.10L39.01-2.10Q39.01-1.63 38.82-1.22Q38.64-0.82 38.29-0.51Q37.94-0.20 37.45-0.03Q36.96 0.14 36.33 0.14L36.33 0.14Q35.50 0.14 34.80-0.17Q34.09-0.48 33.57-1.02L33.57-1.02ZM43.95 0L43.95-7.03L41.57-7.03L41.57-7.87L47.33-7.87L47.33-7.03L44.96-7.03L44.96 0L43.95 0ZM51.25-3.20L53.62-3.20L53.24-4.40Q53.03-5.06 52.84-5.72Q52.64-6.37 52.45-7.06L52.45-7.06L52.40-7.06Q52.22-6.37 52.03-5.72Q51.84-5.06 51.62-4.40L51.62-4.40L51.25-3.20ZM54.61 0L53.87-2.40L51-2.40L50.24 0L49.22 0L51.89-7.87L53.02-7.87L55.68 0L54.61 0ZM58.22-3.94L58.22-3.94Q58.22-4.88 58.48-5.64Q58.75-6.40 59.22-6.92Q59.68-7.45 60.33-7.73Q60.97-8.02 61.72-8.02L61.72-8.02Q62.44-8.02 62.98-7.72Q63.52-7.43 63.87-7.04L63.87-7.04L63.31-6.41Q63.00-6.74 62.62-6.94Q62.24-7.14 61.74-7.14L61.74-7.14Q61.17-7.14 60.72-6.92Q60.26-6.70 59.94-6.28Q59.61-5.87 59.43-5.28Q59.25-4.69 59.25-3.96L59.25-3.96Q59.25-3.22 59.43-2.62Q59.60-2.03 59.91-1.61Q60.22-1.19 60.67-0.96Q61.12-0.73 61.69-0.73L61.69-0.73Q62.26-0.73 62.69-0.96Q63.12-1.19 63.50-1.61L63.50-1.61L64.06-1.00Q63.60-0.46 63.01-0.16Q62.42 0.14 61.66 0.14L61.66 0.14Q60.92 0.14 60.29-0.13Q59.66-0.41 59.20-0.93Q58.74-1.45 58.48-2.21Q58.22-2.98 58.22-3.94ZM67.53 0L67.53-7.87L68.52-7.87L68.52-3.92L68.56-3.92L71.84-7.87L72.96-7.87L70.50-4.87L73.35 0L72.23 0L69.88-4.09L68.52-2.50L68.52 0L67.53 0ZM80.90 0L80.90-7.87L82.87-7.87Q84.69-7.87 85.64-6.86Q86.59-5.86 86.59-3.97L86.59-3.97Q86.59-3.04 86.35-2.30Q86.11-1.56 85.64-1.05Q85.17-0.54 84.49-0.27Q83.80 0 82.92 0L82.92 0L80.90 0ZM81.90-0.82L82.80-0.82Q84.18-0.82 84.87-1.64Q85.56-2.47 85.56-3.97L85.56-3.97Q85.56-5.47 84.87-6.26Q84.18-7.06 82.80-7.06L82.80-7.06L81.90-7.06L81.90-0.82ZM90.28 0L90.28-7.87L94.82-7.87L94.82-7.03L91.28-7.03L91.28-4.56L94.26-4.56L94.26-3.71L91.28-3.71L91.28-0.85L94.94-0.85L94.94 0L90.28 0ZM100.04 0L97.52-7.87L98.59-7.87L99.85-3.62Q100.07-2.92 100.23-2.32Q100.39-1.72 100.62-1.02L100.62-1.02L100.67-1.02Q100.88-1.72 101.05-2.32Q101.22-2.92 101.42-3.62L101.42-3.62L102.68-7.87L103.70-7.87L101.21 0L100.04 0ZM106.78 0L106.78-7.87L111.32-7.87L111.32-7.03L107.78-7.03L107.78-4.56L110.77-4.56L110.77-3.71L107.78-3.71L107.78-0.85L111.44-0.85L111.44 0L106.78 0ZM115.11 0L115.11-7.87L116.10-7.87L116.10-0.85L119.55-0.85L119.55 0L115.11 0ZM125.53 0.14L125.53 0.14Q124.79 0.14 124.17-0.14Q123.55-0.43 123.11-0.97Q122.66-1.50 122.42-2.26Q122.17-3.02 122.17-3.97L122.17-3.97Q122.17-4.92 122.42-5.67Q122.66-6.42 123.11-6.94Q123.55-7.46 124.17-7.74Q124.79-8.02 125.53-8.02L125.53-8.02Q126.28-8.02 126.89-7.73Q127.51-7.45 127.96-6.93Q128.41-6.41 128.66-5.66Q128.90-4.91 128.90-3.97L128.90-3.97Q128.90-3.02 128.66-2.26Q128.41-1.50 127.96-0.97Q127.51-0.43 126.89-0.14Q126.28 0.14 125.53 0.14ZM125.53-0.73L125.53-0.73Q126.06-0.73 126.49-0.96Q126.91-1.19 127.22-1.61Q127.52-2.04 127.69-2.63Q127.86-3.23 127.86-3.97L127.86-3.97Q127.86-4.70 127.69-5.29Q127.52-5.88 127.22-6.29Q126.91-6.70 126.49-6.92Q126.06-7.14 125.53-7.14L125.53-7.14Q125.00-7.14 124.58-6.92Q124.15-6.70 123.85-6.29Q123.54-5.88 123.37-5.29Q123.20-4.70 123.20-3.97L123.20-3.97Q123.20-3.23 123.37-2.63Q123.54-2.04 123.85-1.61Q124.15-1.19 124.58-0.96Q125.00-0.73 125.53-0.73ZM132.60 0L132.60-7.87L135.01-7.87Q135.66-7.87 136.20-7.75Q136.74-7.63 137.11-7.36Q137.49-7.09 137.70-6.65Q137.91-6.20 137.91-5.56L137.91-5.56Q137.91-4.93 137.70-4.48Q137.49-4.02 137.11-3.72Q136.72-3.42 136.19-3.27Q135.66-3.12 135.01-3.12L135.01-3.12L133.59-3.12L133.59 0L132.60 0ZM133.59-3.94L134.89-3.94Q135.92-3.94 136.42-4.33Q136.92-4.72 136.92-5.56L136.92-5.56Q136.92-6.41 136.41-6.74Q135.91-7.07 134.89-7.07L134.89-7.07L133.59-7.07L133.59-3.94ZM141.51 0L141.51-7.87L146.04-7.87L146.04-7.03L142.50-7.03L142.50-4.56L145.49-4.56L145.49-3.71L142.50-3.71L142.50-0.85L146.16-0.85L146.16 0L141.51 0ZM150.83-7.07L150.83-4.14L152.15-4.14Q153.07-4.14 153.56-4.52Q154.06-4.90 154.06-5.66L154.06-5.66Q154.06-6.44 153.56-6.76Q153.07-7.07 152.15-7.07L152.15-7.07L150.83-7.07ZM155.28 0L154.15 0L152.26-3.32L150.83-3.32L150.83 0L149.83 0L149.83-7.87L152.29-7.87Q152.89-7.87 153.40-7.76Q153.91-7.64 154.28-7.38Q154.64-7.12 154.85-6.70Q155.05-6.28 155.05-5.66L155.05-5.66Q155.05-4.74 154.57-4.19Q154.09-3.64 153.29-3.43L153.29-3.43L155.28 0Z" transform="translate(-1.08, 8.016)"></path></g></g></g></g></g></g></g></g><mask id="c1ec79e3-9637-4626-820d-c131b75c960d"><g fill="white"><rect data-gra="graph-name-bg" stroke-width="2" class="i-icon-bg" x="0" y="0" width="164.1999969482422" height="12.160000801086426" fill-opacity="1"></rect>   </g> <g transform="translate(5,2)" fill="black"><g transform="scale(1, 1)"><g transform="scale(1)"><path d="M1.08 0L1.08-7.87L5.62-7.87L5.62-7.03L2.08-7.03L2.08-4.37L5.08-4.37L5.08-3.53L2.08-3.53L2.08 0L1.08 0ZM8.97-3.25L8.97-7.87L9.97-7.87L9.97-3.23Q9.97-2.52 10.11-2.04Q10.26-1.56 10.50-1.27Q10.75-0.98 11.08-0.86Q11.42-0.73 11.80-0.73L11.80-0.73Q12.20-0.73 12.54-0.86Q12.87-0.98 13.12-1.27Q13.38-1.56 13.52-2.04Q13.66-2.52 13.66-3.23L13.66-3.23L13.66-7.87L14.62-7.87L14.62-3.25Q14.62-2.30 14.41-1.66Q14.19-1.01 13.81-0.61Q13.44-0.20 12.92-0.03Q12.40 0.14 11.80 0.14L11.80 0.14Q11.20 0.14 10.68-0.03Q10.16-0.20 9.78-0.61Q9.40-1.01 9.19-1.66Q8.97-2.30 8.97-3.25L8.97-3.25ZM18.75 0L18.75-7.87L19.74-7.87L19.74-0.85L23.19-0.85L23.19 0L18.75 0ZM26.58 0L26.58-7.87L27.58-7.87L27.58-0.85L31.02-0.85L31.02 0L26.58 0ZM33.57-1.02L34.17-1.72Q34.59-1.27 35.16-1.00Q35.73-0.73 36.34-0.73L36.34-0.73Q37.12-0.73 37.56-1.09Q37.99-1.44 37.99-2.02L37.99-2.02Q37.99-2.32 37.89-2.53Q37.78-2.74 37.61-2.89Q37.44-3.04 37.20-3.16Q36.96-3.28 36.68-3.41L36.68-3.41L35.55-3.90Q35.28-4.02 34.99-4.19Q34.70-4.36 34.47-4.60Q34.24-4.84 34.10-5.17Q33.96-5.50 33.96-5.93L33.96-5.93Q33.96-6.37 34.14-6.76Q34.33-7.14 34.66-7.42Q34.99-7.70 35.44-7.86Q35.89-8.02 36.43-8.02L36.43-8.02Q37.14-8.02 37.74-7.75Q38.34-7.48 38.76-7.04L38.76-7.04L38.22-6.40Q37.86-6.74 37.42-6.94Q36.98-7.14 36.43-7.14L36.43-7.14Q35.77-7.14 35.37-6.83Q34.96-6.53 34.96-5.99L34.96-5.99Q34.96-5.70 35.08-5.50Q35.19-5.30 35.38-5.15Q35.58-5.00 35.80-4.89Q36.03-4.78 36.27-4.68L36.27-4.68L37.39-4.20Q37.72-4.06 38.02-3.87Q38.32-3.68 38.54-3.44Q38.76-3.19 38.88-2.86Q39.01-2.53 39.01-2.10L39.01-2.10Q39.01-1.63 38.82-1.22Q38.64-0.82 38.29-0.51Q37.94-0.20 37.45-0.03Q36.96 0.14 36.33 0.14L36.33 0.14Q35.50 0.14 34.80-0.17Q34.09-0.48 33.57-1.02L33.57-1.02ZM43.95 0L43.95-7.03L41.57-7.03L41.57-7.87L47.33-7.87L47.33-7.03L44.96-7.03L44.96 0L43.95 0ZM51.25-3.20L53.62-3.20L53.24-4.40Q53.03-5.06 52.84-5.72Q52.64-6.37 52.45-7.06L52.45-7.06L52.40-7.06Q52.22-6.37 52.03-5.72Q51.84-5.06 51.62-4.40L51.62-4.40L51.25-3.20ZM54.61 0L53.87-2.40L51-2.40L50.24 0L49.22 0L51.89-7.87L53.02-7.87L55.68 0L54.61 0ZM58.22-3.94L58.22-3.94Q58.22-4.88 58.48-5.64Q58.75-6.40 59.22-6.92Q59.68-7.45 60.33-7.73Q60.97-8.02 61.72-8.02L61.72-8.02Q62.44-8.02 62.98-7.72Q63.52-7.43 63.87-7.04L63.87-7.04L63.31-6.41Q63.00-6.74 62.62-6.94Q62.24-7.14 61.74-7.14L61.74-7.14Q61.17-7.14 60.72-6.92Q60.26-6.70 59.94-6.28Q59.61-5.87 59.43-5.28Q59.25-4.69 59.25-3.96L59.25-3.96Q59.25-3.22 59.43-2.62Q59.60-2.03 59.91-1.61Q60.22-1.19 60.67-0.96Q61.12-0.73 61.69-0.73L61.69-0.73Q62.26-0.73 62.69-0.96Q63.12-1.19 63.50-1.61L63.50-1.61L64.06-1.00Q63.60-0.46 63.01-0.16Q62.42 0.14 61.66 0.14L61.66 0.14Q60.92 0.14 60.29-0.13Q59.66-0.41 59.20-0.93Q58.74-1.45 58.48-2.21Q58.22-2.98 58.22-3.94ZM67.53 0L67.53-7.87L68.52-7.87L68.52-3.92L68.56-3.92L71.84-7.87L72.96-7.87L70.50-4.87L73.35 0L72.23 0L69.88-4.09L68.52-2.50L68.52 0L67.53 0ZM80.90 0L80.90-7.87L82.87-7.87Q84.69-7.87 85.64-6.86Q86.59-5.86 86.59-3.97L86.59-3.97Q86.59-3.04 86.35-2.30Q86.11-1.56 85.64-1.05Q85.17-0.54 84.49-0.27Q83.80 0 82.92 0L82.92 0L80.90 0ZM81.90-0.82L82.80-0.82Q84.18-0.82 84.87-1.64Q85.56-2.47 85.56-3.97L85.56-3.97Q85.56-5.47 84.87-6.26Q84.18-7.06 82.80-7.06L82.80-7.06L81.90-7.06L81.90-0.82ZM90.28 0L90.28-7.87L94.82-7.87L94.82-7.03L91.28-7.03L91.28-4.56L94.26-4.56L94.26-3.71L91.28-3.71L91.28-0.85L94.94-0.85L94.94 0L90.28 0ZM100.04 0L97.52-7.87L98.59-7.87L99.85-3.62Q100.07-2.92 100.23-2.32Q100.39-1.72 100.62-1.02L100.62-1.02L100.67-1.02Q100.88-1.72 101.05-2.32Q101.22-2.92 101.42-3.62L101.42-3.62L102.68-7.87L103.70-7.87L101.21 0L100.04 0ZM106.78 0L106.78-7.87L111.32-7.87L111.32-7.03L107.78-7.03L107.78-4.56L110.77-4.56L110.77-3.71L107.78-3.71L107.78-0.85L111.44-0.85L111.44 0L106.78 0ZM115.11 0L115.11-7.87L116.10-7.87L116.10-0.85L119.55-0.85L119.55 0L115.11 0ZM125.53 0.14L125.53 0.14Q124.79 0.14 124.17-0.14Q123.55-0.43 123.11-0.97Q122.66-1.50 122.42-2.26Q122.17-3.02 122.17-3.97L122.17-3.97Q122.17-4.92 122.42-5.67Q122.66-6.42 123.11-6.94Q123.55-7.46 124.17-7.74Q124.79-8.02 125.53-8.02L125.53-8.02Q126.28-8.02 126.89-7.73Q127.51-7.45 127.96-6.93Q128.41-6.41 128.66-5.66Q128.90-4.91 128.90-3.97L128.90-3.97Q128.90-3.02 128.66-2.26Q128.41-1.50 127.96-0.97Q127.51-0.43 126.89-0.14Q126.28 0.14 125.53 0.14ZM125.53-0.73L125.53-0.73Q126.06-0.73 126.49-0.96Q126.91-1.19 127.22-1.61Q127.52-2.04 127.69-2.63Q127.86-3.23 127.86-3.97L127.86-3.97Q127.86-4.70 127.69-5.29Q127.52-5.88 127.22-6.29Q126.91-6.70 126.49-6.92Q126.06-7.14 125.53-7.14L125.53-7.14Q125.00-7.14 124.58-6.92Q124.15-6.70 123.85-6.29Q123.54-5.88 123.37-5.29Q123.20-4.70 123.20-3.97L123.20-3.97Q123.20-3.23 123.37-2.63Q123.54-2.04 123.85-1.61Q124.15-1.19 124.58-0.96Q125.00-0.73 125.53-0.73ZM132.60 0L132.60-7.87L135.01-7.87Q135.66-7.87 136.20-7.75Q136.74-7.63 137.11-7.36Q137.49-7.09 137.70-6.65Q137.91-6.20 137.91-5.56L137.91-5.56Q137.91-4.93 137.70-4.48Q137.49-4.02 137.11-3.72Q136.72-3.42 136.19-3.27Q135.66-3.12 135.01-3.12L135.01-3.12L133.59-3.12L133.59 0L132.60 0ZM133.59-3.94L134.89-3.94Q135.92-3.94 136.42-4.33Q136.92-4.72 136.92-5.56L136.92-5.56Q136.92-6.41 136.41-6.74Q135.91-7.07 134.89-7.07L134.89-7.07L133.59-7.07L133.59-3.94ZM141.51 0L141.51-7.87L146.04-7.87L146.04-7.03L142.50-7.03L142.50-4.56L145.49-4.56L145.49-3.71L142.50-3.71L142.50-0.85L146.16-0.85L146.16 0L141.51 0ZM150.83-7.07L150.83-4.14L152.15-4.14Q153.07-4.14 153.56-4.52Q154.06-4.90 154.06-5.66L154.06-5.66Q154.06-6.44 153.56-6.76Q153.07-7.07 152.15-7.07L152.15-7.07L150.83-7.07ZM155.28 0L154.15 0L152.26-3.32L150.83-3.32L150.83 0L149.83 0L149.83-7.87L152.29-7.87Q152.89-7.87 153.40-7.76Q153.91-7.64 154.28-7.38Q154.64-7.12 154.85-6.70Q155.05-6.28 155.05-5.66L155.05-5.66Q155.05-4.74 154.57-4.19Q154.09-3.64 153.29-3.43L153.29-3.43L155.28 0Z" transform="translate(-1.08, 8.016)"></path></g></g></g></mask><defs v-gra="od"></defs></svg>
